<?xml version="1.0"?>
<svg xmlns="http://www.w3.org/2000/svg" xmlns:xlink="http://www.w3.org/1999/xlink" xmlns:svgjs="http://svgjs.com/svgjs" version="1.1" width="512" height="512" x="0" y="0" viewBox="0 0 512 512" style="enable-background:new 0 0 512 512" xml:space="preserve" class=""><g><g xmlns="http://www.w3.org/2000/svg"><g><g><g><g><g><g><path d="m45.222 401.329c-28.519-41.284-45.222-91.356-45.222-145.329 0-141.385 114.615-256 256-256s256 114.615 256 256-114.615 256-256 256c-39.612 0-77.123-8.997-110.601-25.059z" fill="#9fa9ff" data-original="#a3d4ff" style="" class=""/></g></g></g></g></g></g><path d="m512 256c0-10.764-.664-21.373-1.954-31.788l-108.847-108.846-290.398 39.197 78.062 78.062-20.165 8.766 82.752 82.752-178.835 100.596 72.784 62.202c33.478 16.062 70.989 25.059 110.601 25.059 141.385 0 256-114.615 256-256z" fill="#0071F0" data-original="#65b1fc" style="" class=""/><g><g><g><path d="m365.655 317.66-83.308 33.73h-72.86l55.581-22.559c3.097-1.257 5.38-3.952 6.112-7.213 1.642-7.322-4.923-13.848-12.235-12.162l-105.935 24.429c-17.42 4.017-32.97 13.807-44.122 27.778l-38.067 47.687 66.546 66.546 36.634-75.646h92.173c12.864 0 25.415-3.965 35.944-11.356l74.025-51.962c1.707-1.199 3.04-2.856 3.844-4.781 3.782-9.052-5.238-18.172-14.332-14.491z" fill="#ffdecf" data-original="#ffdecf" style="" class=""/></g></g></g><g><g><g><path d="m365.655 317.661-83.308 33.73h-26.347v48.86h10.174c12.864 0 25.415-3.965 35.944-11.356l74.025-51.962c1.707-1.198 3.04-2.856 3.844-4.78 3.782-9.053-5.238-18.174-14.332-14.492z" fill="#ffcdbe" data-original="#ffcdbe" style=""/></g></g></g><g><g><g><path d="m45.222 401.329c25.257 36.562 59.781 66.23 100.178 85.612l32.145-46.966-108.125-74.002z" fill="#ffffff" data-original="#ffffff" style="" class=""/></g></g></g><g><path d="m360.135 142.447h30v79.819h-30z" fill="#e9edf5" data-original="#e9edf5" style="" class=""/></g><g><path d="m343.302 241.391-87.049 28.658-87.555-28.658v-106.427h174.604z" fill="#414952" data-original="#414952" style="" class=""/></g><g><path d="m256 134.964.253 135.085 87.049-28.658v-106.427z" fill="#23272b" data-original="#23272b" style="" class=""/></g><g><path d="m110.801 115.366h290.398v39.197h-290.398z" fill="#636978" data-original="#636978" style="" class=""/></g><g><path d="m256 115.366h145.199v39.197h-145.199z" fill="#414952" data-original="#414952" style="" class=""/></g><g><path d="m397.548 259.997h-44.826v-31.709c0-12.378 10.035-22.413 22.413-22.413 12.378 0 22.413 10.035 22.413 22.413z" fill="#ffce00" data-original="#ffce00" style="" class=""/></g></g></g></svg>
