<svg xmlns="http://www.w3.org/2000/svg" viewBox="0 0 350 80"><title>lettutor_logo</title><path d="M76,62.52v-35L45.69,10.06,15.41,27.55v35L45.69,80Z" fill="#0058c3"/><path d="M45.69,10.06,15.41,27.54v35L45.69,80Z" fill="#0368d9"/><path d="M89.11,23.65,50.31,1.25a9.37,9.37,0,0,0-9.36,0L2.16,23.65a4.32,4.32,0,0,0,0,7.48L41,53.53a9.35,9.35,0,0,0,9.35,0l38.8-22.4A4.32,4.32,0,0,0,89.11,23.65Z" fill="#0071f0"/><polygon points="44.4 26.26 70.84 41.52 80.51 35.94 54.07 20.68 44.4 26.26" fill="#489af8"/><path d="M70.85,41.53V65.09l4.79,5.28,4.87-7.87V35.94Z" fill="#489af8"/><path d="M116.12,54h13.8v6.66h-22.2V18.79h8.4Z" fill="#0071f0"/><path d="M165.92,46.57h-24.3a8.26,8.26,0,0,0,2.52,5.64,7.77,7.77,0,0,0,5.46,2,6.86,6.86,0,0,0,6.66-4h9.06a15.14,15.14,0,0,1-5.52,7.89,16.12,16.12,0,0,1-10,3.09,17.34,17.34,0,0,1-8.61-2.13,15,15,0,0,1-5.94-6,18.48,18.48,0,0,1-2.13-9A18.82,18.82,0,0,1,135.2,35a14.65,14.65,0,0,1,5.88-6,18.88,18.88,0,0,1,17.19-.06,14.36,14.36,0,0,1,5.82,5.79,17.52,17.52,0,0,1,2.07,8.61A19.82,19.82,0,0,1,165.92,46.57Zm-8.46-5.64a6.66,6.66,0,0,0-2.34-5.19,8.29,8.29,0,0,0-5.58-2,7.62,7.62,0,0,0-5.25,1.89,8.31,8.31,0,0,0-2.61,5.25Z" fill="#0071f0"/><path d="M182.06,34.33V50.41a3.18,3.18,0,0,0,.81,2.43,4,4,0,0,0,2.73.75h3.9v7.08h-5.28q-10.62,0-10.62-10.32v-16h-4v-6.9h4V19.21h8.46v8.22h7.44v6.9Z" fill="#0071f0"/><path d="M224.06,18.79v6.78H212.9v35.1h-8.4V25.57H193.34V18.79Z" fill="#0071f0"/><path d="M261.56,27.43V60.67H253.1v-4.2a11.09,11.09,0,0,1-4.23,3.39,13.13,13.13,0,0,1-5.67,1.23,14.08,14.08,0,0,1-6.9-1.65,11.63,11.63,0,0,1-4.71-4.86,16.06,16.06,0,0,1-1.71-7.65V27.43h8.4v18.3a8.62,8.62,0,0,0,2,6.09,7,7,0,0,0,5.4,2.13,7.09,7.09,0,0,0,5.46-2.13,8.62,8.62,0,0,0,2-6.09V27.43Z" fill="#0071f0"/><path d="M279.62,34.33V50.41a3.18,3.18,0,0,0,.81,2.43,4,4,0,0,0,2.73.75h3.9v7.08h-5.28q-10.62,0-10.62-10.32v-16h-4v-6.9h4V19.21h8.46v8.22h7.44v6.9Z" fill="#0071f0"/><path d="M299.24,59.08a15.34,15.34,0,0,1-6-6,18.07,18.07,0,0,1-2.19-9,17.68,17.68,0,0,1,2.25-9,15.64,15.64,0,0,1,6.15-6,18.83,18.83,0,0,1,17.4,0,15.64,15.64,0,0,1,6.15,6,17.68,17.68,0,0,1,2.25,9,17.32,17.32,0,0,1-2.31,9,16,16,0,0,1-6.24,6,18.15,18.15,0,0,1-8.79,2.13A17.51,17.51,0,0,1,299.24,59.08Zm12.93-6.3a8.07,8.07,0,0,0,3.21-3.33,11.22,11.22,0,0,0,1.2-5.4q0-4.74-2.49-7.29A8.19,8.19,0,0,0,308,34.21a8,8,0,0,0-6,2.55q-2.43,2.55-2.43,7.29t2.37,7.29a7.8,7.8,0,0,0,6,2.55A8.74,8.74,0,0,0,312.17,52.78Z" fill="#0071f0"/><path d="M344,28.45a11.76,11.76,0,0,1,6-1.5v8.82h-2.22q-4,0-6,1.86t-2,6.48V60.67h-8.4V27.43h8.4v5.16A11.81,11.81,0,0,1,344,28.45Z" fill="#0071f0"/></svg>